<?xml version="1.0" encoding="UTF-8" standalone="no"?>
<!DOCTYPE svg PUBLIC "-//W3C//DTD SVG 1.1//EN" "http://www.w3.org/Graphics/SVG/1.1/DTD/svg11.dtd">
<svg width="100%" height="100%" viewBox="0 0 336 236" version="1.1" xmlns="http://www.w3.org/2000/svg" xmlns:xlink="http://www.w3.org/1999/xlink" xml:space="preserve" xmlns:serif="http://www.serif.com/" style="fill-rule:evenodd;clip-rule:evenodd;stroke-linejoin:round;stroke-miterlimit:2;">
    <g>
        <rect x="-22.799" y="-7.108" width="391.662" height="258.228" style="fill:rgb(252,218,159);fill-rule:nonzero;"/>
        <rect x="30.598" y="-11.588" width="1.2" height="259.668" style="fill:rgb(197,112,50);fill-rule:nonzero;"/>
        <rect x="85.316" y="-11.588" width="1.199" height="259.668" style="fill:rgb(197,112,50);fill-rule:nonzero;"/>
        <rect x="140.033" y="-11.588" width="1.201" height="259.668" style="fill:rgb(197,112,50);fill-rule:nonzero;"/>
        <rect x="304.187" y="-11.588" width="1.2" height="259.668" style="fill:rgb(197,112,50);fill-rule:nonzero;"/>
        <rect x="249.468" y="-11.588" width="1.201" height="259.668" style="fill:rgb(197,112,50);fill-rule:nonzero;"/>
        <rect x="194.751" y="-11.588" width="1.199" height="259.668" style="fill:rgb(197,112,50);fill-rule:nonzero;"/>
        <path d="M81.262,98.212C81.262,101.492 80.295,104.15 79.102,104.15C77.909,104.15 76.943,101.492 76.943,98.212C76.943,94.932 77.909,92.272 79.102,92.272C80.295,92.272 81.262,94.932 81.262,98.212Z" style="fill:rgb(197,112,50);fill-rule:nonzero;"/>
        <path d="M188.893,19.797C188.893,23.077 187.926,25.736 186.732,25.736C185.54,25.736 184.573,23.077 184.573,19.797C184.573,16.516 185.54,13.857 186.732,13.857C187.926,13.857 188.893,16.516 188.893,19.797Z" style="fill:rgb(197,112,50);fill-rule:nonzero;"/>
        <path d="M206.53,125.987C206.53,129.267 205.564,131.926 204.37,131.926C203.178,131.926 202.211,129.267 202.211,125.987C202.211,122.706 203.178,120.047 204.37,120.047C205.564,120.047 206.53,122.706 206.53,125.987Z" style="fill:rgb(197,112,50);fill-rule:nonzero;"/>
        <path d="M299.761,196.539C299.761,199.82 298.795,202.48 297.602,202.48C296.408,202.48 295.441,199.82 295.441,196.539C295.441,193.259 296.408,190.601 297.602,190.601C298.795,190.601 299.761,193.259 299.761,196.539Z" style="fill:rgb(197,112,50);fill-rule:nonzero;"/>
        <path d="M95.3,171.522C95.3,174.802 94.334,177.462 93.141,177.462C91.948,177.462 90.981,174.802 90.981,171.522C90.981,168.242 91.948,165.582 93.141,165.582C94.334,165.582 95.3,168.242 95.3,171.522Z" style="fill:rgb(197,112,50);fill-rule:nonzero;"/>
        <path d="M98.99,164.435C98.99,165.666 98.627,166.664 98.18,166.664C97.733,166.664 97.371,165.666 97.371,164.435C97.371,163.206 97.733,162.208 98.18,162.208C98.627,162.208 98.99,163.206 98.99,164.435Z" style="fill:rgb(197,112,50);fill-rule:nonzero;"/>
        <path d="M147.586,102.229C147.586,103.458 147.223,104.456 146.776,104.456C146.329,104.456 145.966,103.458 145.966,102.229C145.966,100.998 146.329,100.001 146.776,100.001C147.223,100.001 147.586,100.998 147.586,102.229Z" style="fill:rgb(197,112,50);fill-rule:nonzero;"/>
        <path d="M213.459,135.638C213.459,136.869 213.097,137.865 212.65,137.865C212.201,137.865 211.841,136.869 211.841,135.638C211.841,134.408 212.201,133.411 212.65,133.411C213.097,133.411 213.459,134.408 213.459,135.638Z" style="fill:rgb(197,112,50);fill-rule:nonzero;"/>
        <path d="M259.536,77.031C259.536,78.262 259.174,79.259 258.725,79.259C258.278,79.259 257.915,78.262 257.915,77.031C257.915,75.802 258.278,74.805 258.725,74.805C259.174,74.805 259.536,75.802 259.536,77.031Z" style="fill:rgb(197,112,50);fill-rule:nonzero;"/>
        <path d="M315.331,43.555C315.331,44.784 314.969,45.781 314.52,45.781C314.073,45.781 313.71,44.784 313.71,43.555C313.71,42.325 314.073,41.327 314.52,41.327C314.969,41.327 315.331,42.325 315.331,43.555Z" style="fill:rgb(197,112,50);fill-rule:nonzero;"/>
        <path d="M290.852,181.781C290.852,183.012 290.489,184.009 290.043,184.009C289.597,184.009 289.233,183.012 289.233,181.781C289.233,180.551 289.597,179.554 290.043,179.554C290.489,179.554 290.852,180.551 290.852,181.781Z" style="fill:rgb(197,112,50);fill-rule:nonzero;"/>
        <path d="M237.217,222.818C237.217,224.047 236.854,225.044 236.407,225.044C235.961,225.044 235.599,224.047 235.599,222.818C235.599,221.587 235.961,220.589 236.407,220.589C236.854,220.589 237.217,221.587 237.217,222.818Z" style="fill:rgb(197,112,50);fill-rule:nonzero;"/>
        <path d="M178.544,181.781C178.544,183.012 178.181,184.009 177.734,184.009C177.286,184.009 176.923,183.012 176.923,181.781C176.923,180.551 177.286,179.554 177.734,179.554C178.181,179.554 178.544,180.551 178.544,181.781Z" style="fill:rgb(197,112,50);fill-rule:nonzero;"/>
        <path d="M37.346,209.139C37.346,210.37 36.983,211.367 36.537,211.367C36.089,211.367 35.726,210.37 35.726,209.139C35.726,207.909 36.089,206.912 36.537,206.912C36.983,206.912 37.346,207.909 37.346,209.139Z" style="fill:rgb(197,112,50);fill-rule:nonzero;"/>
        <path d="M23.307,57.233C23.307,58.464 22.945,59.461 22.498,59.461C22.05,59.461 21.688,58.464 21.688,57.233C21.688,56.004 22.05,55.007 22.498,55.007C22.945,55.007 23.307,56.004 23.307,57.233Z" style="fill:rgb(197,112,50);fill-rule:nonzero;"/>
        <path d="M239.467,185.057L236.294,185.057L236.294,182.657L237.068,182.657C238.657,182.657 239.947,181.367 239.947,179.777L239.947,176.416C239.947,176.265 239.936,176.116 239.913,175.971C241.292,176.186 242.348,177.378 242.348,178.818L242.348,182.176C242.348,183.768 241.058,185.057 239.467,185.057Z" style="fill:rgb(217,188,137);fill-rule:nonzero;"/>
        <path d="M233.416,229.095L195.95,229.095L195.95,226.696L231.015,226.696C232.606,226.696 233.896,225.406 233.896,223.816L233.896,182.657L236.294,182.657L236.294,220.611C235.901,220.763 235.599,221.693 235.599,222.818C235.599,223.942 235.901,224.871 236.294,225.023L236.294,226.215C236.294,227.805 235.005,229.095 233.416,229.095ZM194.751,229.095L141.234,229.095L141.234,226.696L159.938,226.696L159.938,227.055L176.097,227.055L176.097,226.696L194.751,226.696L194.751,229.095ZM140.033,229.095L107.42,229.095C105.982,229.095 104.79,228.04 104.575,226.661C104.721,226.684 104.869,226.696 105.021,226.696L140.033,226.696L140.033,229.095Z" style="fill:rgb(217,188,137);fill-rule:nonzero;"/>
        <rect x="140.033" y="226.696" width="1.201" height="2.399" style="fill:rgb(170,98,44);fill-rule:nonzero;"/>
        <rect x="194.751" y="226.696" width="1.199" height="2.399" style="fill:rgb(170,98,44);fill-rule:nonzero;"/>
        <path d="M236.294,173.537L233.896,173.537L233.896,132.379C233.896,132.228 233.884,132.079 233.861,131.933C235.239,132.147 236.294,133.34 236.294,134.779L236.294,173.537Z" style="fill:rgb(217,188,137);fill-rule:nonzero;"/>
        <path d="M236.294,225.023C235.901,224.871 235.599,223.942 235.599,222.818C235.599,221.693 235.901,220.763 236.294,220.611L236.294,225.023Z" style="fill:rgb(170,98,44);fill-rule:nonzero;"/>
        <path d="M239.947,179.777C239.947,181.367 238.657,182.657 237.068,182.657L232.269,182.657C230.678,182.657 229.388,181.367 229.388,179.777L229.388,176.416C229.388,174.827 230.678,173.537 232.269,173.537L237.068,173.537C238.657,173.537 239.947,174.827 239.947,176.416L239.947,179.777Z" style="fill:rgb(102,79,59);fill-rule:nonzero;"/>
        <path d="M233.896,223.816C233.896,225.406 232.606,226.696 231.015,226.696L105.021,226.696C103.431,226.696 102.141,225.406 102.141,223.816L102.141,132.379C102.141,130.789 103.431,129.499 105.021,129.499L231.015,129.499C232.606,129.499 233.896,130.789 233.896,132.379L233.896,223.816Z" style="fill:rgb(135,113,92);fill-rule:nonzero;"/>
        <rect x="159.938" y="129.139" width="16.159" height="97.916" style="fill:rgb(102,79,59);fill-rule:nonzero;"/>
        <path d="M159.938,221.175L110.484,221.175L110.484,139.819L159.938,139.819L159.938,149.991L116.483,149.991L116.483,150.53L159.938,150.53L159.938,156.709L116.483,156.709L116.483,157.248L159.938,157.248L159.938,163.428L116.483,163.428L116.483,163.969L159.938,163.969L159.938,170.148L116.483,170.148L116.483,170.688L159.938,170.688L159.938,176.868L116.483,176.868L116.483,177.408L159.938,177.408L159.938,183.586L116.483,183.586L116.483,184.126L159.938,184.126L159.938,190.306L116.483,190.306L116.483,190.846L159.938,190.846L159.938,197.025L116.483,197.025L116.483,197.565L159.938,197.565L159.938,203.745L116.483,203.745L116.483,204.285L159.938,204.285L159.938,210.464L116.483,210.464L116.483,211.003L159.938,211.003L159.938,221.175Z" style="fill:rgb(118,99,80);fill-rule:nonzero;"/>
        <path d="M169.521,221.175L159.938,221.175L159.938,211.003L163.521,211.003L163.521,210.464L159.938,210.464L159.938,204.285L163.521,204.285L163.521,203.745L159.938,203.745L159.938,197.565L163.521,197.565L163.521,197.025L159.938,197.025L159.938,190.846L163.521,190.846L163.521,190.306L159.938,190.306L159.938,184.126L163.521,184.126L163.521,183.586L159.938,183.586L159.938,177.408L163.521,177.408L163.521,176.868L159.938,176.868L159.938,170.688L163.521,170.688L163.521,170.148L159.938,170.148L159.938,163.969L163.521,163.969L163.521,163.428L159.938,163.428L159.938,157.248L163.521,157.248L163.521,156.709L159.938,156.709L159.938,150.53L163.521,150.53L163.521,149.991L159.938,149.991L159.938,139.819L169.521,139.819L169.521,221.175Z" style="fill:rgb(89,70,52);fill-rule:nonzero;"/>
        <rect x="116.483" y="149.991" width="43.455" height="0.539" style="fill:rgb(118,99,80);fill-rule:nonzero;"/>
        <rect x="159.938" y="149.991" width="3.583" height="0.539" style="fill:rgb(89,70,52);fill-rule:nonzero;"/>
        <rect x="116.483" y="156.709" width="43.455" height="0.539" style="fill:rgb(118,99,80);fill-rule:nonzero;"/>
        <rect x="159.938" y="156.709" width="3.583" height="0.539" style="fill:rgb(89,70,52);fill-rule:nonzero;"/>
        <rect x="116.483" y="163.428" width="43.455" height="0.541" style="fill:rgb(118,99,80);fill-rule:nonzero;"/>
        <rect x="159.938" y="163.428" width="3.583" height="0.541" style="fill:rgb(89,70,52);fill-rule:nonzero;"/>
        <rect x="116.483" y="170.148" width="43.455" height="0.54" style="fill:rgb(118,99,80);fill-rule:nonzero;"/>
        <rect x="159.938" y="170.148" width="3.583" height="0.54" style="fill:rgb(89,70,52);fill-rule:nonzero;"/>
        <rect x="116.483" y="176.868" width="43.455" height="0.54" style="fill:rgb(118,99,80);fill-rule:nonzero;"/>
        <rect x="159.938" y="176.868" width="3.583" height="0.54" style="fill:rgb(89,70,52);fill-rule:nonzero;"/>
        <rect x="116.483" y="183.586" width="43.455" height="0.54" style="fill:rgb(118,99,80);fill-rule:nonzero;"/>
        <rect x="159.938" y="183.586" width="3.583" height="0.54" style="fill:rgb(89,70,52);fill-rule:nonzero;"/>
        <rect x="116.483" y="190.306" width="43.455" height="0.54" style="fill:rgb(118,99,80);fill-rule:nonzero;"/>
        <rect x="159.938" y="190.306" width="3.583" height="0.54" style="fill:rgb(89,70,52);fill-rule:nonzero;"/>
        <rect x="116.483" y="197.025" width="43.455" height="0.54" style="fill:rgb(118,99,80);fill-rule:nonzero;"/>
        <rect x="159.938" y="197.025" width="3.583" height="0.54" style="fill:rgb(89,70,52);fill-rule:nonzero;"/>
        <rect x="116.483" y="203.745" width="43.455" height="0.54" style="fill:rgb(118,99,80);fill-rule:nonzero;"/>
        <rect x="159.938" y="203.745" width="3.583" height="0.54" style="fill:rgb(89,70,52);fill-rule:nonzero;"/>
        <rect x="116.483" y="210.464" width="43.455" height="0.539" style="fill:rgb(118,99,80);fill-rule:nonzero;"/>
        <rect x="159.938" y="210.464" width="3.583" height="0.539" style="fill:rgb(89,70,52);fill-rule:nonzero;"/>
        <path d="M230.353,221.175L176.097,221.175L176.097,139.819L230.353,139.819L230.353,221.175ZM177.315,210.464L177.315,211.003L224.352,211.003L224.352,210.464L177.315,210.464ZM177.315,203.745L177.315,204.285L224.352,204.285L224.352,203.745L177.315,203.745ZM177.315,197.025L177.315,197.565L224.352,197.565L224.352,197.025L177.315,197.025ZM177.315,190.306L177.315,190.846L224.352,190.846L224.352,190.306L177.315,190.306ZM177.315,183.586L177.315,184.126L224.352,184.126L224.352,183.586L177.315,183.586ZM177.315,176.868L177.315,177.408L224.352,177.408L224.352,176.868L177.315,176.868ZM177.315,170.148L177.315,170.688L224.352,170.688L224.352,170.148L177.315,170.148ZM177.315,163.428L177.315,163.969L224.352,163.969L224.352,163.428L177.315,163.428ZM177.315,156.709L177.315,157.248L224.352,157.248L224.352,156.709L177.315,156.709ZM177.315,149.991L177.315,150.53L224.352,150.53L224.352,149.991L177.315,149.991Z" style="fill:rgb(118,99,80);fill-rule:nonzero;"/>
        <rect x="171.314" y="139.819" width="4.783" height="81.356" style="fill:rgb(89,70,52);fill-rule:nonzero;"/>
        <rect x="177.315" y="149.991" width="47.037" height="0.539" style="fill:rgb(118,99,80);fill-rule:nonzero;"/>
        <rect x="177.315" y="156.709" width="47.037" height="0.539" style="fill:rgb(118,99,80);fill-rule:nonzero;"/>
        <rect x="177.315" y="163.428" width="47.037" height="0.541" style="fill:rgb(118,99,80);fill-rule:nonzero;"/>
        <rect x="177.315" y="170.148" width="47.037" height="0.54" style="fill:rgb(118,99,80);fill-rule:nonzero;"/>
        <rect x="177.315" y="176.868" width="47.037" height="0.54" style="fill:rgb(118,99,80);fill-rule:nonzero;"/>
        <rect x="177.315" y="183.586" width="47.037" height="0.54" style="fill:rgb(118,99,80);fill-rule:nonzero;"/>
        <rect x="177.315" y="190.306" width="47.037" height="0.54" style="fill:rgb(118,99,80);fill-rule:nonzero;"/>
        <rect x="177.315" y="197.025" width="47.037" height="0.54" style="fill:rgb(118,99,80);fill-rule:nonzero;"/>
        <rect x="177.315" y="203.745" width="47.037" height="0.54" style="fill:rgb(118,99,80);fill-rule:nonzero;"/>
        <rect x="177.315" y="210.464" width="47.037" height="0.539" style="fill:rgb(118,99,80);fill-rule:nonzero;"/>
        <rect x="225.068" y="145.889" width="5.919" height="16.64" style="fill:rgb(86,178,222);fill-rule:nonzero;"/>
        <rect x="225.068" y="165.248" width="5.919" height="16.639" style="fill:rgb(244,155,0);fill-rule:nonzero;"/>
        <rect x="108.084" y="137.418" width="59.037" height="81.357" style="fill:rgb(255,249,244);fill-rule:nonzero;"/>
        <rect x="114.084" y="147.589" width="47.038" height="0.54" style="fill:rgb(177,138,102);fill-rule:nonzero;"/>
        <rect x="114.084" y="154.309" width="47.038" height="0.54" style="fill:rgb(177,138,102);fill-rule:nonzero;"/>
        <rect x="114.084" y="161.028" width="47.038" height="0.54" style="fill:rgb(177,138,102);fill-rule:nonzero;"/>
        <rect x="114.084" y="167.748" width="47.038" height="0.54" style="fill:rgb(177,138,102);fill-rule:nonzero;"/>
        <rect x="114.084" y="174.467" width="47.038" height="0.54" style="fill:rgb(177,138,102);fill-rule:nonzero;"/>
        <rect x="114.084" y="181.187" width="47.038" height="0.54" style="fill:rgb(177,138,102);fill-rule:nonzero;"/>
        <rect x="114.084" y="187.907" width="47.038" height="0.54" style="fill:rgb(177,138,102);fill-rule:nonzero;"/>
        <rect x="114.084" y="194.625" width="47.038" height="0.54" style="fill:rgb(177,138,102);fill-rule:nonzero;"/>
        <rect x="114.084" y="201.344" width="47.038" height="0.54" style="fill:rgb(177,138,102);fill-rule:nonzero;"/>
        <rect x="114.084" y="208.064" width="47.038" height="0.54" style="fill:rgb(177,138,102);fill-rule:nonzero;"/>
        <rect x="168.914" y="137.418" width="59.037" height="81.357" style="fill:rgb(255,249,244);fill-rule:nonzero;"/>
        <rect x="174.914" y="147.589" width="47.037" height="0.54" style="fill:rgb(177,138,102);fill-rule:nonzero;"/>
        <rect x="174.914" y="154.309" width="47.037" height="0.54" style="fill:rgb(177,138,102);fill-rule:nonzero;"/>
        <rect x="174.914" y="161.028" width="47.037" height="0.54" style="fill:rgb(177,138,102);fill-rule:nonzero;"/>
        <rect x="174.914" y="167.748" width="47.037" height="0.54" style="fill:rgb(177,138,102);fill-rule:nonzero;"/>
        <rect x="174.914" y="174.467" width="47.037" height="0.54" style="fill:rgb(177,138,102);fill-rule:nonzero;"/>
        <rect x="174.914" y="181.187" width="47.037" height="0.54" style="fill:rgb(177,138,102);fill-rule:nonzero;"/>
        <rect x="174.914" y="187.907" width="47.037" height="0.54" style="fill:rgb(177,138,102);fill-rule:nonzero;"/>
        <rect x="174.914" y="194.625" width="47.037" height="0.54" style="fill:rgb(177,138,102);fill-rule:nonzero;"/>
        <rect x="174.914" y="201.344" width="47.037" height="0.54" style="fill:rgb(177,138,102);fill-rule:nonzero;"/>
        <rect x="174.914" y="208.064" width="47.037" height="0.54" style="fill:rgb(177,138,102);fill-rule:nonzero;"/>
        <path d="M280.795,154.321C277.943,155.116 274.988,153.449 274.194,150.598C273.399,147.748 275.066,144.792 277.918,143.998C280.768,143.205 283.722,144.872 284.516,147.721C285.311,150.572 283.644,153.526 280.795,154.321ZM277.723,143.303C274.489,144.205 272.599,147.557 273.498,150.792C274.399,154.027 277.752,155.917 280.987,155.016C284.223,154.116 286.113,150.762 285.212,147.528C284.311,144.293 280.958,142.401 277.723,143.303Z" style="fill:rgb(101,80,61);fill-rule:nonzero;"/>
        <path d="M289.309,169.472L281.874,171.544L277.075,154.322L284.51,152.249L289.309,169.472Z" style="fill:rgb(135,113,92);fill-rule:nonzero;"/>
        <path d="M295.567,173.375L278.536,178.121L272.804,157.546L289.833,152.801L295.567,173.375Z" style="fill:rgb(101,80,61);fill-rule:nonzero;"/>
        <path d="M292.41,219.548C283.609,219.548 275.281,215.737 269.514,209.294C275.077,214.273 282.364,217.148 290.01,217.148C292.739,217.148 295.515,216.781 298.272,216.013C300.36,215.431 302.336,214.648 304.187,213.689L304.187,217.203C303.055,217.671 301.883,218.075 300.673,218.413C297.916,219.181 295.139,219.548 292.41,219.548ZM305.387,216.678L305.387,213.033C317.249,206.197 323.461,191.973 319.616,178.175C318.308,173.48 315.979,169.346 312.934,165.945C317.157,169.723 320.384,174.712 322.018,180.576C326.114,195.276 318.792,210.46 305.387,216.678Z" style="fill:rgb(217,188,137);fill-rule:nonzero;"/>
        <path d="M304.187,217.203L304.187,213.689C304.593,213.478 304.993,213.26 305.387,213.033L305.387,216.678C304.992,216.861 304.593,217.036 304.187,217.203Z" style="fill:rgb(170,98,44);fill-rule:nonzero;"/>
        <path d="M319.616,178.175C324.171,194.519 314.616,211.458 298.272,216.013C281.929,220.567 264.989,211.01 260.436,194.667C255.882,178.325 265.437,161.384 281.78,156.83C298.123,152.276 315.062,161.832 319.616,178.175Z" style="fill:rgb(135,113,92);fill-rule:nonzero;"/>
        <path d="M314.3,179.658C318.036,193.064 310.196,206.959 296.79,210.696C283.384,214.431 269.487,206.592 265.753,193.186C262.017,179.78 269.856,165.883 283.262,162.148C296.668,158.412 310.563,166.251 314.3,179.658Z" style="fill:rgb(215,195,178);fill-rule:nonzero;"/>
        <path d="M314.333,180.236C317.918,193.101 310.395,206.437 297.528,210.023C284.663,213.608 271.326,206.085 267.74,193.218C264.155,180.353 271.68,167.016 284.545,163.432C297.41,159.847 310.748,167.37 314.333,180.236Z" style="fill:rgb(255,249,244);fill-rule:nonzero;"/>
        <path d="M286.559,188.55L286.269,172.935L294.096,186.451L286.559,188.55Z" style="fill:rgb(227,25,19);fill-rule:nonzero;"/>
        <path d="M291.148,191.627C289.363,191.627 287.725,190.446 287.221,188.642C287.197,188.556 287.176,188.47 287.158,188.383L294.096,186.451L292.501,183.696C293.715,184.123 294.709,185.117 295.081,186.452C295.686,188.621 294.417,190.871 292.246,191.476C291.88,191.578 291.511,191.627 291.148,191.627Z" style="fill:rgb(220,214,209);fill-rule:nonzero;"/>
        <path d="M287.158,188.383C286.719,186.294 287.972,184.197 290.056,183.616C290.421,183.514 290.789,183.465 291.151,183.465C291.617,183.465 292.072,183.546 292.501,183.696L294.096,186.451L287.158,188.383Z" style="fill:rgb(196,24,18);fill-rule:nonzero;"/>
        <path d="M293.955,185.326C294.562,187.497 293.291,189.747 291.121,190.351C288.95,190.956 286.701,189.687 286.097,187.517C285.491,185.345 286.76,183.096 288.932,182.491C291.102,181.887 293.352,183.156 293.955,185.326Z" style="fill:rgb(135,113,92);fill-rule:nonzero;"/>
        <path d="M284.241,165.172L285.833,164.728L285.81,164.851C285.335,165.013 285.273,165.14 285.19,165.571L284.793,167.628C284.713,168.04 284.528,168.943 285.516,168.668C286.024,168.526 286.379,168.153 286.544,167.907C286.695,167.652 286.774,167.356 286.856,166.932L287.182,165.241C287.296,164.649 287.247,164.462 286.809,164.572L286.833,164.45L288.142,164.085L288.119,164.207C287.647,164.381 287.537,164.564 287.419,165.175L287.065,167.007C286.864,168.049 286.27,168.719 285.316,168.985C283.916,169.375 284.147,168.149 284.224,167.75L284.614,165.731C284.71,165.236 284.629,165.21 284.218,165.294L284.241,165.172Z" style="fill:rgb(136,113,92);fill-rule:nonzero;"/>
        <path d="M51.575,214.946C51.224,214.946 50.868,214.881 50.522,214.746L37.331,209.559C37.341,209.423 37.346,209.282 37.346,209.139C37.346,207.909 36.983,206.912 36.537,206.912C36.115,206.912 35.768,207.797 35.73,208.929L31.798,207.383L31.798,164.981L42.385,138.055C42.831,136.921 43.916,136.228 45.065,136.228C45.416,136.228 45.773,136.293 46.119,136.429L76.604,148.415C78.085,148.997 78.812,150.669 78.23,152.149L54.255,213.119C53.81,214.252 52.724,214.946 51.575,214.946ZM30.598,206.911L20.038,202.758C18.557,202.177 17.829,200.504 18.412,199.025L30.598,168.033L30.598,206.911Z" style="fill:rgb(217,188,137);fill-rule:nonzero;"/>
        <path d="M31.798,207.383L30.598,206.911L30.598,168.033L31.798,164.981L31.798,207.383Z" style="fill:rgb(170,98,44);fill-rule:nonzero;"/>
        <path d="M37.331,209.559L35.73,208.929C35.768,207.797 36.115,206.912 36.537,206.912C36.983,206.912 37.346,207.909 37.346,209.139C37.346,209.282 37.341,209.423 37.331,209.559Z" style="fill:rgb(170,98,44);fill-rule:nonzero;"/>
        <path d="M51.856,210.718C51.274,212.199 49.603,212.927 48.122,212.345L17.638,200.358C16.158,199.776 15.429,198.105 16.011,196.624L39.985,135.655C40.567,134.175 42.239,133.447 43.72,134.028L74.203,146.015C75.684,146.598 76.412,148.269 75.831,149.749L51.856,210.718Z" style="fill:rgb(135,113,92);fill-rule:nonzero;"/>
        <path d="M52.151,202.155L21.628,190.154L42.457,137.183L72.98,149.185L52.151,202.155Z" style="fill:white;fill-rule:nonzero;"/>
        <path d="M41.036,203.315C40.478,204.735 38.877,205.432 37.458,204.874L30.535,202.152C29.116,201.594 28.418,199.992 28.976,198.574C29.534,197.155 31.135,196.456 32.554,197.015L39.478,199.737C40.897,200.295 41.594,201.897 41.036,203.315Z" style="fill:rgb(102,79,59);fill-rule:nonzero;"/>
        <path d="M307.515,143.696C306.827,143.696 306.137,143.52 305.515,143.16L311.332,135.894C312.654,137.324 312.766,139.543 311.513,141.109L310.643,142.194C309.852,143.182 308.688,143.696 307.515,143.696Z" style="fill:rgb(217,188,137);fill-rule:nonzero;"/>
        <path d="M301.29,139.862L273.905,117.939L279.804,110.57L304.187,130.09L304.187,136.241L301.29,139.862ZM305.387,134.743L305.387,131.049L307.189,132.491L305.387,134.743Z" style="fill:rgb(217,188,137);fill-rule:nonzero;"/>
        <path d="M304.187,136.241L304.187,130.09L305.387,131.049L305.387,134.743L304.187,136.241Z" style="fill:rgb(170,98,44);fill-rule:nonzero;"/>
        <path d="M305.387,143.32L305.387,134.743L307.189,132.491L307.676,131.883L311.861,135.233L311.332,135.894L305.515,143.16L305.387,143.32ZM304.187,143.18L300.803,140.47L301.29,139.862L304.187,136.241L304.187,143.18Z" style="fill:rgb(217,188,137);fill-rule:nonzero;"/>
        <path d="M304.986,143.82L304.187,143.18L304.187,136.241L305.387,134.743L305.387,143.32L304.986,143.82Z" style="fill:rgb(170,98,44);fill-rule:nonzero;"/>
        <path d="M273.418,118.548L270.746,116.409C272.126,115.234 273.415,113.911 274.59,112.443C275.765,110.975 276.775,109.426 277.62,107.822L280.291,109.961L279.804,110.57L273.905,117.939L273.418,118.548Z" style="fill:rgb(217,188,137);fill-rule:nonzero;"/>
        <path d="M251.997,123.289C251.555,123.289 251.111,123.279 250.669,123.259L250.669,117.492C251.112,117.517 251.557,117.53 252,117.53C258.79,117.53 265.52,114.556 270.095,108.843C278.088,98.858 276.473,84.284 266.486,76.29C262.215,72.871 257.105,71.21 252.029,71.21C251.575,71.21 251.122,71.224 250.669,71.25L250.669,65.482C251.123,65.461 251.578,65.45 252.033,65.45C258.372,65.45 264.752,67.524 270.087,71.794C281.088,80.6 283.953,95.802 277.62,107.822C276.775,109.426 275.765,110.975 274.59,112.443C273.415,113.911 272.126,115.234 270.746,116.409C265.419,120.947 258.732,123.289 251.997,123.289ZM249.468,123.179C243.978,122.699 238.567,120.647 233.941,116.945C221.473,106.965 219.458,88.767 229.438,76.297C234.573,69.884 241.883,66.236 249.468,65.564L249.468,71.352C243.576,72.004 237.932,74.904 233.936,79.897C225.941,89.882 227.558,104.456 237.542,112.449C241.103,115.3 245.246,116.929 249.468,117.391L249.468,123.179Z" style="fill:rgb(217,188,137);fill-rule:nonzero;"/>
        <path d="M250.669,123.259C250.268,123.24 249.868,123.214 249.468,123.179L249.468,117.391C249.868,117.435 250.268,117.469 250.669,117.492L250.669,123.259ZM249.468,71.352L249.468,65.564C249.867,65.528 250.268,65.501 250.669,65.482L250.669,71.25C250.268,71.274 249.867,71.308 249.468,71.352Z" style="fill:rgb(170,98,44);fill-rule:nonzero;"/>
        <path d="M252,117.53C251.557,117.53 251.112,117.517 250.669,117.492L250.669,71.25C251.122,71.224 251.575,71.21 252.029,71.21C257.105,71.21 262.215,72.871 266.486,76.29C276.473,84.284 278.088,98.858 270.095,108.843C265.52,114.556 258.79,117.53 252,117.53ZM258.725,74.805C258.278,74.805 257.915,75.802 257.915,77.031C257.915,78.262 258.278,79.259 258.725,79.259C259.174,79.259 259.536,78.262 259.536,77.031C259.536,75.802 259.174,74.805 258.725,74.805ZM249.468,117.391C245.246,116.929 241.103,115.3 237.542,112.449C227.558,104.456 225.941,89.882 233.936,79.897C237.932,74.904 243.576,72.004 249.468,71.352L249.468,117.391Z" style="fill:rgb(217,188,137);fill-rule:nonzero;"/>
        <path d="M250.669,117.492C250.268,117.469 249.868,117.435 249.468,117.391L249.468,71.352C249.867,71.308 250.268,71.274 250.669,71.25L250.669,117.492Z" style="fill:rgb(170,98,44);fill-rule:nonzero;"/>
        <path d="M258.725,79.259C258.278,79.259 257.915,78.262 257.915,77.031C257.915,75.802 258.278,74.805 258.725,74.805C259.174,74.805 259.536,75.802 259.536,77.031C259.536,78.262 259.174,79.259 258.725,79.259Z" style="fill:rgb(170,98,44);fill-rule:nonzero;"/>
        <path d="M308.374,132.922C310.1,134.305 310.381,136.825 308.997,138.55L308.129,139.637C306.747,141.364 304.227,141.642 302.499,140.259L298.854,137.34C297.125,135.958 296.847,133.438 298.23,131.711L299.099,130.626C300.48,128.9 303,128.621 304.729,130.002L308.374,132.922Z" style="fill:rgb(135,113,92);fill-rule:nonzero;"/>
        <path d="M308.062,132.646L302.164,140.016L256.198,103.221L262.099,95.852L308.062,132.646Z" style="fill:rgb(135,113,92);fill-rule:nonzero;"/>
        <path d="M309.345,132.674L302.472,141.262L298.287,137.913L305.162,129.327L309.345,132.674Z" style="fill:rgb(102,79,59);fill-rule:nonzero;"/>
        <path d="M277.777,107.403L270.902,115.99L266.72,112.641L273.592,104.054L277.777,107.403Z" style="fill:rgb(102,79,59);fill-rule:nonzero;"/>
        <path d="M267.572,69.237C280.042,79.218 282.057,97.416 272.076,109.885C262.094,122.354 243.895,124.37 231.428,114.389C218.959,104.407 216.942,86.208 226.924,73.741C236.904,61.271 255.104,59.256 267.572,69.237Z" style="fill:rgb(135,113,92);fill-rule:nonzero;"/>
        <path d="M263.973,73.733C273.957,81.727 275.573,96.301 267.579,106.286C259.586,116.27 245.013,117.885 235.025,109.892C225.041,101.898 223.427,87.325 231.42,77.339C239.414,67.354 253.988,65.74 263.973,73.733Z" style="fill:white;fill-rule:nonzero;"/>
        <path d="M133.3,95.249C133.237,95.046 133.146,94.839 133.027,94.637L128.531,86.994C128.412,86.792 128.274,86.612 128.128,86.459L130.022,85.344C130.61,84.998 131.255,84.833 131.891,84.833C133.155,84.833 134.387,85.484 135.075,86.653L136.505,89.082C137.539,90.839 136.951,93.1 135.195,94.134L133.3,95.249Z" style="fill:rgb(217,188,137);fill-rule:nonzero;"/>
        <path d="M82.657,124.977L82.657,124.976L82.661,124.975L82.657,124.977ZM82.775,124.907L81.501,122.742L85.316,120.497L85.316,123.413L82.775,124.907ZM86.515,122.707L86.515,119.791L127.044,95.944L128.011,97.588C128.119,97.771 128.241,97.936 128.373,98.079L86.515,122.707Z" style="fill:rgb(217,188,137);fill-rule:nonzero;"/>
        <path d="M85.316,123.413L85.316,120.497L86.515,119.791L86.515,122.707L85.316,123.413Z" style="fill:rgb(170,98,44);fill-rule:nonzero;"/>
        <path d="M78.939,118.387L77.664,116.221L85.316,111.718L85.316,114.635L78.939,118.387ZM86.515,113.929L86.515,111.013L123.261,89.392C123.323,89.576 123.407,89.763 123.515,89.946L124.482,91.59L86.515,113.929Z" style="fill:rgb(217,188,137);fill-rule:nonzero;"/>
        <path d="M85.316,114.635L85.316,111.718L86.515,111.013L86.515,113.929L85.316,114.635Z" style="fill:rgb(170,98,44);fill-rule:nonzero;"/>
        <path d="M77.547,116.291L77.546,116.29L77.549,116.289L77.547,116.291Z" style="fill:rgb(217,188,137);fill-rule:nonzero;"/>
        <path d="M81.501,122.742L78.939,118.387L85.316,114.635L85.316,120.497L81.501,122.742ZM86.515,119.791L86.515,113.929L124.482,91.59L127.044,95.944L86.515,119.791Z" style="fill:rgb(217,188,137);fill-rule:nonzero;"/>
        <path d="M85.316,120.497L85.316,114.635L86.515,113.929L86.515,119.791L85.316,120.497Z" style="fill:rgb(170,98,44);fill-rule:nonzero;"/>
        <path d="M68.554,127.428L77.547,116.291L77.549,116.289L77.639,116.177L77.664,116.221L78.939,118.387L81.501,122.742L82.775,124.907L82.801,124.951L82.661,124.975L82.657,124.976L73.224,126.616L70.771,124.683L68.554,127.428Z" style="fill:rgb(217,188,137);fill-rule:nonzero;"/>
        <path d="M68.554,127.428L70.771,124.683L73.224,126.616L73.225,126.617L68.554,127.428Z" style="fill:rgb(217,188,137);fill-rule:nonzero;"/>
        <path d="M129.573,98.722C129.187,98.722 128.744,98.485 128.373,98.079C128.241,97.936 128.119,97.771 128.011,97.588L127.044,95.944L124.482,91.59L123.515,89.946C123.407,89.763 123.323,89.576 123.261,89.392C123.02,88.671 123.128,87.987 123.576,87.725L126.559,85.968C126.682,85.896 126.821,85.861 126.968,85.861C127.34,85.861 127.765,86.08 128.128,86.459C128.274,86.612 128.412,86.792 128.531,86.994L133.027,94.637C133.146,94.839 133.237,95.046 133.3,95.249C133.515,95.948 133.401,96.603 132.967,96.858L129.983,98.615C129.858,98.687 129.72,98.722 129.573,98.722Z" style="fill:rgb(217,188,137);fill-rule:nonzero;"/>
        <path d="M128.688,94.152C126.93,95.185 124.669,94.6 123.635,92.842L122.205,90.413C121.172,88.656 121.758,86.395 123.515,85.361L127.623,82.944C129.379,81.91 131.642,82.496 132.675,84.253L134.104,86.683C135.138,88.439 134.552,90.701 132.796,91.734L128.688,94.152Z" style="fill:rgb(255,242,201);fill-rule:nonzero;"/>
        <path d="M80.257,122.578L75.147,113.89L121.341,86.709L126.453,95.396L80.257,122.578Z" style="fill:rgb(229,61,101);fill-rule:nonzero;"/>
        <path d="M78.984,120.411L76.421,116.057L122.616,88.875L125.178,93.23L78.984,120.411Z" style="fill:rgb(188,38,74);fill-rule:nonzero;"/>
        <path d="M75.239,113.777L66.154,125.028L80.401,122.551L75.239,113.777Z" style="fill:rgb(250,200,149);fill-rule:nonzero;"/>
        <path d="M70.826,124.216L68.372,122.283L66.154,125.028L70.826,124.216Z" style="fill:rgb(90,60,35);fill-rule:nonzero;"/>
        <path d="M127.582,96.214C127.021,96.544 126.14,96.085 125.611,95.188L121.115,87.546C120.587,86.649 120.614,85.655 121.176,85.325L124.159,83.569C124.72,83.239 125.603,83.698 126.13,84.594L130.628,92.237C131.155,93.134 131.128,94.129 130.567,94.459L127.582,96.214Z" style="fill:rgb(102,79,59);fill-rule:nonzero;"/>
        <path d="M194.193,100.329L141.234,47.37L141.234,22.13L162.553,0.81L194.751,0.81L194.751,99.726L194.193,100.329ZM186.732,13.857C185.54,13.857 184.573,16.516 184.573,19.797C184.573,23.077 185.54,25.736 186.732,25.736C187.926,25.736 188.893,23.077 188.893,19.797C188.893,16.516 187.926,13.857 186.732,13.857ZM195.95,98.429L195.95,0.81L249.468,0.81L249.468,40.54L195.95,98.429ZM140.033,46.17L128.614,34.75L140.033,23.331L140.033,46.17ZM250.669,39.241L250.669,0.81L283.665,0.81L284.866,2.251L250.669,39.241Z" style="fill:rgb(217,188,137);fill-rule:nonzero;"/>
        <path d="M141.234,47.37L140.033,46.17L140.033,23.331L141.234,22.13L141.234,47.37Z" style="fill:rgb(170,98,44);fill-rule:nonzero;"/>
        <path d="M249.468,40.54L249.468,0.81L250.669,0.81L250.669,39.241L249.468,40.54Z" style="fill:rgb(170,98,44);fill-rule:nonzero;"/>
        <path d="M194.751,99.726L194.751,0.81L195.95,0.81L195.95,98.429L194.751,99.726Z" style="fill:rgb(170,98,44);fill-rule:nonzero;"/>
        <path d="M186.732,25.736C185.54,25.736 184.573,23.077 184.573,19.797C184.573,16.516 185.54,13.857 186.732,13.857C187.926,13.857 188.893,16.516 188.893,19.797C188.893,23.077 187.926,25.736 186.732,25.736Z" style="fill:rgb(170,98,44);fill-rule:nonzero;"/>
        <path d="M289.374,-2.051L189.392,97.93L123.813,32.351L223.794,-67.63L289.374,-2.051Z" style="fill:rgb(255,249,244);fill-rule:nonzero;"/>
        <path d="M280.631,-1.867L189.578,89.187L132.557,32.165L223.609,-58.887L280.631,-1.867Z" style="fill:rgb(108,186,224);fill-rule:nonzero;"/>
        <path d="M239.825,-37.877C238.207,-35.963 239.679,-34.491 237.03,-30.96C234.382,-27.429 232.321,-27.723 230.409,-23.456C228.495,-19.189 232.764,-18.158 235.412,-15.215C238.06,-12.273 240.562,-8.005 237.471,-6.681C234.382,-5.357 231.438,0.235 231.732,3.767C232.027,7.298 240.268,9.652 230.409,14.508C220.551,19.364 232.468,19.511 237.177,23.337C241.887,27.163 239.825,28.635 239.236,33.932C239.032,35.767 239.59,37.231 240.401,38.361L280.631,-1.867L241.947,-40.55C241.19,-39.802 240.611,-38.805 239.825,-37.877ZM222.315,48.498C220.551,44.968 216.135,54.09 213.044,53.061C209.956,52.03 209.807,51.589 206.423,55.267C203.039,58.946 197.153,67.481 193.77,67.629C190.386,67.775 192.591,66.157 194.799,55.415C197.007,44.673 189.796,52.767 185.529,55.562C181.261,58.358 183.321,64.244 176.259,66.304C172.748,67.328 170.367,68.024 168.857,68.466L189.578,89.187L227.719,51.044C227.048,49.286 223.597,51.063 222.315,48.498ZM195.093,-15.51C195.093,-20.218 195.535,-21.837 193.623,-26.693C193.406,-27.24 193.256,-27.825 193.153,-28.43L142.483,22.239C143.425,22.651 144.907,23.763 146.682,26.721C149.772,31.872 153.893,30.695 158.013,29.223C162.132,27.752 163.458,26.721 166.842,30.695C170.227,34.668 174.053,35.256 177.141,31.872C180.231,28.487 177.437,25.985 179.496,22.454C181.557,18.923 191.121,16.715 194.505,15.096C197.89,13.477 204.068,6.709 196.713,2.295C189.354,-2.12 186.116,-1.825 188.618,-6.386C191.121,-10.949 195.093,-10.801 195.093,-15.51ZM203.334,25.102C201.567,26.869 201.273,28.928 196.418,29.371C191.562,29.812 195.535,32.901 197.89,34.961C200.244,37.022 207.602,32.901 207.602,32.901C223.639,27.457 209.66,26.721 207.306,24.956C204.953,23.19 205.1,23.337 203.334,25.102ZM160.22,42.319C157.423,40.112 154.922,43.202 151.391,43.79C149.229,44.151 146.294,44.07 144.343,43.953L153.03,52.639C153.656,52.277 154.331,51.926 155.07,51.589C158.307,50.118 163.015,44.526 160.22,42.319Z" style="fill:rgb(70,128,49);fill-rule:nonzero;"/>
        <path d="M295.888,85.105C294.758,85.105 293.698,84.445 293.264,83.355L274.35,35.999C273.774,34.56 274.507,32.914 275.982,32.325L276.317,32.191L297.313,84.76L296.978,84.894C296.62,85.037 296.25,85.105 295.888,85.105Z" style="fill:rgb(217,188,137);fill-rule:nonzero;"/>
        <path d="M297.318,84.774L297.313,84.76L276.317,32.191L276.312,32.177L304.187,21.044L304.187,82.031L297.318,84.774ZM305.387,81.552L305.387,20.565L311.304,18.202L332.31,70.799L305.387,81.552ZM314.52,41.327C314.073,41.327 313.71,42.325 313.71,43.555C313.71,44.784 314.073,45.781 314.52,45.781C314.969,45.781 315.331,44.784 315.331,43.555C315.331,42.325 314.969,41.327 314.52,41.327Z" style="fill:rgb(217,188,137);fill-rule:nonzero;"/>
        <path d="M304.187,82.031L304.187,21.044L305.387,20.565L305.387,81.552L304.187,82.031Z" style="fill:rgb(170,98,44);fill-rule:nonzero;"/>
        <path d="M314.52,45.781C314.073,45.781 313.71,44.784 313.71,43.555C313.71,42.325 314.073,41.327 314.52,41.327C314.969,41.327 315.331,42.325 315.331,43.555C315.331,44.784 314.969,45.781 314.52,45.781Z" style="fill:rgb(170,98,44);fill-rule:nonzero;"/>
        <path d="M300.782,76.995C301.356,78.434 300.625,80.079 299.148,80.669L294.58,82.494C293.102,83.083 291.439,82.394 290.862,80.955L271.95,33.6C271.374,32.159 272.105,30.514 273.584,29.924L278.152,28.1C279.629,27.51 281.293,28.198 281.868,29.638L300.782,76.995Z" style="fill:rgb(182,40,35);fill-rule:nonzero;"/>
        <path d="M329.909,68.399L294.92,82.375L273.911,29.777L308.902,15.802L329.909,68.399Z" style="fill:rgb(229,61,101);fill-rule:nonzero;"/>
        <path d="M312.926,34.933L284.177,46.416L278.79,32.933L307.54,21.449L312.926,34.933Z" style="fill:white;fill-rule:nonzero;"/>
        <path d="M77.25,91.151C76.449,91.151 75.64,90.912 74.935,90.415L65.525,83.782L68.23,79.945L74.57,84.415C75.11,84.795 75.73,84.978 76.344,84.978C76.768,84.978 77.189,84.891 77.579,84.722L81.783,87.685L80.542,89.445C79.759,90.557 78.515,91.151 77.25,91.151ZM97.848,64.893L93.645,61.93C93.715,60.892 93.257,59.843 92.344,59.199L86.515,55.09L86.515,54.004L88.708,50.893L87.316,49.912L87.317,49.911L98.119,57.526C99.935,58.807 100.371,61.317 99.089,63.133L97.848,64.893Z" style="fill:rgb(217,188,137);fill-rule:nonzero;"/>
        <path d="M86.515,55.09L86.004,54.73L86.515,54.004L86.515,55.09Z" style="fill:rgb(170,98,44);fill-rule:nonzero;"/>
        <path d="M84.808,53.887L84.612,53.749L84.808,53.887Z" style="fill:rgb(217,188,137);fill-rule:nonzero;"/>
        <path d="M65.525,83.783L64.133,82.801L66.838,78.963L68.23,79.945L65.525,83.782L65.525,83.783ZM85.316,54.245L84.808,53.887L84.612,53.749L85.316,52.75L85.316,54.245ZM86.515,54.004L86.515,51.048L87.316,49.912L88.708,50.893L86.515,54.004Z" style="fill:rgb(217,188,137);fill-rule:nonzero;"/>
        <path d="M86.003,54.73L85.316,54.245L85.316,52.75L86.515,51.048L86.515,54.004L86.003,54.73Z" style="fill:rgb(170,98,44);fill-rule:nonzero;"/>
        <path d="M42.446,113.566L46.052,108.45L46.051,108.44L31.798,110.907L31.798,86.096L51.848,100.229L42.446,113.566ZM16.903,113.485L0,101.569L0,63.681L30.598,85.25L30.598,111.115L16.903,113.485Z" style="fill:rgb(217,188,137);fill-rule:nonzero;"/>
        <path d="M30.598,111.115L30.598,85.25L31.798,86.096L31.798,110.907L30.598,111.115Z" style="fill:rgb(170,98,44);fill-rule:nonzero;"/>
        <path d="M59.382,89.54L31.798,70.096L31.798,0.81L31.971,0.81L85.316,38.413L85.316,52.75L84.612,53.749L66.838,78.963L64.133,82.801L59.382,89.54ZM30.598,69.25L0,47.68L0,12.338L8.125,0.81L30.598,0.81L30.598,69.25ZM22.498,55.007C22.05,55.007 21.688,56.004 21.688,57.233C21.688,58.464 22.05,59.461 22.498,59.461C22.945,59.461 23.307,58.464 23.307,57.233C23.307,56.004 22.945,55.007 22.498,55.007ZM86.515,51.048L86.515,39.259L92.067,43.172L87.317,49.911L87.316,49.912L86.515,51.048Z" style="fill:rgb(217,188,137);fill-rule:nonzero;"/>
        <path d="M31.798,70.096L30.598,69.25L30.598,0.81L31.798,0.81L31.798,70.096Z" style="fill:rgb(170,98,44);fill-rule:nonzero;"/>
        <path d="M85.316,52.75L85.316,38.413L86.515,39.259L86.515,51.048L85.316,52.75Z" style="fill:rgb(170,98,44);fill-rule:nonzero;"/>
        <path d="M22.498,59.461C22.05,59.461 21.688,58.464 21.688,57.233C21.688,56.004 22.05,55.007 22.498,55.007C22.945,55.007 23.307,56.004 23.307,57.233C23.307,58.464 22.945,59.461 22.498,59.461Z" style="fill:rgb(170,98,44);fill-rule:nonzero;"/>
        <path d="M99.602,32.483L86.515,23.258L86.515,0.81L101.327,0.81L105.387,24.264L105.397,24.262L112.197,14.616L99.602,32.483ZM85.316,22.413L54.669,0.81L85.316,0.81L85.316,22.413ZM113.868,9.342C113.865,6.472 112.515,3.647 109.99,1.867L108.491,0.81L109.99,1.867C112.515,3.647 113.865,6.472 113.868,9.342Z" style="fill:rgb(217,188,137);fill-rule:nonzero;"/>
        <path d="M86.515,23.258L85.316,22.413L85.316,0.81L86.515,0.81L86.515,23.258Z" style="fill:rgb(170,98,44);fill-rule:nonzero;"/>
        <path d="M105.387,24.264L101.327,0.81L108.491,0.81L109.99,1.867C112.515,3.647 113.865,6.472 113.868,9.342C113.87,11.167 113.328,13.011 112.197,14.616L105.397,24.262L105.387,24.264Z" style="fill:rgb(217,188,137);fill-rule:nonzero;"/>
        <path d="M31.798,121.974L31.798,110.907L46.051,108.44L46.052,108.45L42.446,113.566L39.253,118.096C37.477,120.614 34.661,121.964 31.798,121.974ZM30.598,121.899C29.169,121.715 27.763,121.19 26.504,120.302L16.893,113.527L16.885,113.488L16.903,113.485L30.598,111.115L30.598,121.899Z" style="fill:rgb(217,188,137);fill-rule:nonzero;"/>
        <path d="M31.767,121.974C31.377,121.974 30.987,121.949 30.598,121.899L30.598,111.115L31.798,110.907L31.798,121.974L31.767,121.974Z" style="fill:rgb(170,98,44);fill-rule:nonzero;"/>
        <path d="M82.963,88.424C82.879,88.424 82.8,88.402 82.733,88.354L81.783,87.685L77.579,84.722L77.298,84.524C77.066,84.36 77.067,83.96 77.302,83.627L85.316,72.259L85.316,85.583L83.577,88.05C83.41,88.287 83.171,88.424 82.963,88.424ZM86.515,83.882L86.515,70.557L92.521,62.037C92.688,61.8 92.928,61.663 93.135,61.663C93.219,61.663 93.297,61.685 93.364,61.732L93.645,61.93L97.848,64.893L98.799,65.563C99.031,65.727 99.03,66.128 98.795,66.46L86.515,83.882Z" style="fill:rgb(217,188,137);fill-rule:nonzero;"/>
        <path d="M85.316,85.583L85.316,72.259L86.515,70.557L86.515,83.882L85.316,85.583Z" style="fill:rgb(170,98,44);fill-rule:nonzero;"/>
        <path d="M92.956,43.799L92.067,43.172L86.515,39.259L86.515,23.258L99.602,32.483L100.491,33.11L92.956,43.799ZM85.316,38.413L31.971,0.81L54.669,0.81L85.316,22.413L85.316,38.413Z" style="fill:rgb(217,188,137);fill-rule:nonzero;"/>
        <path d="M86.515,39.259L85.316,38.413L85.316,22.413L86.515,23.258L86.515,39.259Z" style="fill:rgb(170,98,44);fill-rule:nonzero;"/>
        <path d="M52.736,100.855L51.848,100.229L31.798,86.096L31.798,70.096L59.382,89.54L60.271,90.167L52.736,100.855ZM30.598,85.25L0,63.681L0,47.68L30.598,69.25L30.598,85.25Z" style="fill:rgb(217,188,137);fill-rule:nonzero;"/>
        <path d="M31.798,86.096L30.598,85.25L30.598,69.25L31.798,70.096L31.798,86.096Z" style="fill:rgb(170,98,44);fill-rule:nonzero;"/>
        <path d="M49.599,65.396C48.206,64.414 47.872,62.489 48.855,61.097L63.074,40.924C64.055,39.532 65.98,39.199 67.373,40.18L87.544,54.4C88.937,55.381 89.27,57.306 88.289,58.699L74.069,78.871C73.088,80.263 71.163,80.597 69.77,79.614L49.599,65.396ZM75.742,84.645L94.29,58.333C95.57,56.517 95.136,54.007 93.319,52.726L67.007,34.179C65.192,32.899 62.681,33.333 61.4,35.15L42.854,61.461C41.573,63.278 42.008,65.789 43.823,67.069L70.136,85.616C71.952,86.896 74.462,86.461 75.742,84.645Z" style="fill:rgb(135,113,92);fill-rule:nonzero;"/>
        <path d="M63.43,75.145L56.029,69.929L53.325,73.766L60.725,78.982L63.43,75.145ZM76.509,40.877L73.804,44.714L81.204,49.93L83.909,46.093L76.509,40.877Z" style="fill:rgb(102,79,59);fill-rule:nonzero;"/>
        <path d="M-39.342,72.421C-43.471,69.509 -44.459,63.801 -41.547,59.672L31.37,-43.775C34.281,-47.904 39.99,-48.893 44.119,-45.981L105.191,-2.932C109.32,-0.022 110.308,5.686 107.396,9.817L34.478,113.262C31.566,117.392 25.858,118.379 21.729,115.468L-39.342,72.421Z" style="fill:rgb(135,113,92);fill-rule:nonzero;"/>
        <path d="M105.191,-2.932L95.578,-9.709L95.539,-9.701L100.587,19.465L100.597,19.463L107.396,9.817C110.308,5.686 109.32,-0.022 105.191,-2.932Z" style="fill:rgb(102,79,59);fill-rule:nonzero;"/>
        <path d="M21.705,115.503L12.092,108.727L12.086,108.689L41.251,103.64L41.253,103.65L34.453,113.295C31.542,117.426 25.834,118.414 21.705,115.503Z" style="fill:rgb(102,79,59);fill-rule:nonzero;"/>
        <path d="M72.498,79.725C72.266,79.561 72.268,79.16 72.502,78.827L87.721,57.238C87.956,56.905 88.333,56.769 88.564,56.933L93.999,60.763C94.231,60.927 94.23,61.328 93.996,61.661L78.777,83.251C78.543,83.582 78.165,83.719 77.933,83.555L72.498,79.725Z" style="fill:rgb(102,79,59);fill-rule:nonzero;"/>
        <path d="M11.118,-15.305L18.653,-25.994L95.691,28.31L88.156,38.999L11.118,-15.305Z" style="fill:rgb(102,79,59);fill-rule:nonzero;"/>
        <path d="M-29.101,41.751L-21.566,31.062L55.472,85.367L47.937,96.056L-29.101,41.751Z" style="fill:rgb(102,79,59);fill-rule:nonzero;"/>
    </g>
</svg>
